<svg width="64" height="65" fill="none" xmlns="http://www.w3.org/2000/svg"><path d="M24.638 45.776V28.488h-5.741v17.288h5.742Zm-2.87-19.648c2.002 0 3.249-1.327 3.249-2.986-.038-1.697-1.247-2.988-3.21-2.988-1.965 0-3.248 1.29-3.248 2.988 0 1.659 1.245 2.986 3.172 2.986h.037Zm6.048 19.648h5.74v-9.653c0-.516.038-1.033.19-1.402.415-1.033 1.36-2.102 2.946-2.102 2.077 0 2.908 1.585 2.908 3.91v9.247h5.74v-9.912c0-5.31-2.831-7.781-6.608-7.781-3.097 0-4.457 1.732-5.213 2.912h.038V28.49h-5.74c.074 1.622-.001 17.288-.001 17.288Z" fill="#000"/></svg>