<svg width="64" height="65" fill="none" xmlns="http://www.w3.org/2000/svg"><path d="M31.805 51.886c-10.597 0-19.223-8.625-19.223-19.222 0-10.597 8.626-19.222 19.223-19.222 10.596 0 19.221 8.625 19.221 19.222 0 10.597-8.625 19.222-19.222 19.222Zm0-35.343c-8.892 0-16.122 7.23-16.122 16.121 0 8.892 7.23 16.122 16.122 16.122 8.891 0 16.121-7.23 16.121-16.122 0-8.891-7.23-16.121-16.122-16.121Z" fill="#AB5697"/><path d="M26.223 30.774c-3.633 0-7.564-.54-11.756-1.631a1.547 1.547 0 0 1-1.11-1.891 1.547 1.547 0 0 1 1.891-1.11c12.7 3.299 22.639 1.209 28.74-6.034a1.551 1.551 0 0 1 2.183-.186c.657.552.738 1.532.186 2.183-4.843 5.748-11.688 8.669-20.134 8.669Zm-7.749 15.041a1.54 1.54 0 0 1-1.005-.372 1.558 1.558 0 0 1-.174-2.188c9.066-10.597 20.797-13.115 32.188-6.896.75.41 1.03 1.352.62 2.102a1.551 1.551 0 0 1-2.102.62c-13.679-7.459-23.63.676-28.35 6.195a1.55 1.55 0 0 1-1.177.54Z" fill="#AB5697"/><path d="M36.884 51.142c-.056 0-.112 0-.168-.006a1.549 1.549 0 0 1-1.37-1.712c1.21-11.086-1.643-22.266-8.47-33.241a1.549 1.549 0 0 1 2.629-1.637c7.205 11.576 10.206 23.426 8.923 35.22a1.555 1.555 0 0 1-1.544 1.376Z" fill="#AB5697"/></svg>