<svg width="65" height="65" fill="none" xmlns="http://www.w3.org/2000/svg"><path d="M26.873 32.118a5.337 5.337 0 1 1 10.673 0 5.337 5.337 0 1 1-10.673 0Zm-2.885 0a8.222 8.222 0 1 0 16.442 0 8.222 8.222 0 1 0-16.442 0Zm14.846-8.55a1.922 1.922 0 1 0 1.922-1.92h-.001a1.922 1.922 0 0 0-1.921 1.92ZM25.74 45.154c-1.56-.071-2.41-.331-2.973-.551a4.974 4.974 0 0 1-1.842-1.198 4.94 4.94 0 0 1-1.197-1.84c-.22-.564-.48-1.413-.55-2.974-.078-1.689-.094-2.196-.094-6.472 0-4.277.017-4.782.093-6.472.071-1.561.333-2.408.55-2.974a4.978 4.978 0 0 1 1.198-1.842 4.935 4.935 0 0 1 1.842-1.198c.563-.22 1.412-.48 2.973-.55 1.688-.078 2.194-.094 6.468-.094 4.273 0 4.78.017 6.47.093 1.56.072 2.407.334 2.973.551.747.29 1.28.638 1.841 1.198.56.56.907 1.095 1.198 1.842.22.564.48 1.413.55 2.974.078 1.69.093 2.195.093 6.472 0 4.276-.015 4.782-.093 6.471-.07 1.562-.332 2.41-.55 2.974a4.963 4.963 0 0 1-1.198 1.841c-.56.56-1.094.907-1.841 1.198-.564.22-1.413.48-2.973.55-1.688.079-2.195.094-6.47.094-4.276 0-4.781-.015-6.468-.093ZM25.608 16.2c-1.704.077-2.869.348-3.886.743a7.852 7.852 0 0 0-2.836 1.848 7.824 7.824 0 0 0-1.846 2.836c-.396 1.018-.666 2.183-.744 3.887-.079 1.708-.097 2.254-.097 6.603s.018 4.895.097 6.602c.078 1.705.348 2.87.744 3.887a7.83 7.83 0 0 0 1.846 2.837 7.87 7.87 0 0 0 2.836 1.847c1.02.396 2.182.666 3.886.744 1.708.078 2.253.097 6.6.097 4.349 0 4.894-.018 6.601-.097 1.705-.078 2.869-.348 3.886-.744a7.87 7.87 0 0 0 2.836-1.847 7.846 7.846 0 0 0 1.847-2.837c.396-1.018.667-2.182.743-3.887.078-1.709.096-2.253.096-6.602 0-4.35-.018-4.895-.096-6.603-.077-1.704-.347-2.87-.743-3.887a7.875 7.875 0 0 0-1.847-2.837 7.833 7.833 0 0 0-2.834-1.847c-1.02-.395-2.183-.667-3.887-.743-1.707-.078-2.252-.098-6.6-.098s-4.894.019-6.602.098Z" fill="#000"/><path d="M26.873 32.118a5.337 5.337 0 1 1 10.673 0 5.337 5.337 0 1 1-10.673 0Zm-2.885 0a8.222 8.222 0 1 0 16.442 0 8.222 8.222 0 1 0-16.442 0Zm14.846-8.55a1.922 1.922 0 1 0 1.922-1.92h-.001a1.922 1.922 0 0 0-1.921 1.92ZM25.74 45.154c-1.56-.071-2.41-.331-2.973-.551a4.974 4.974 0 0 1-1.842-1.198 4.94 4.94 0 0 1-1.197-1.84c-.22-.564-.48-1.413-.55-2.974-.078-1.689-.094-2.196-.094-6.472 0-4.277.017-4.782.093-6.472.071-1.561.333-2.408.55-2.974a4.978 4.978 0 0 1 1.198-1.842 4.935 4.935 0 0 1 1.842-1.198c.563-.22 1.412-.48 2.973-.55 1.688-.078 2.194-.094 6.468-.094 4.273 0 4.78.017 6.47.093 1.56.072 2.407.334 2.973.551.747.29 1.28.638 1.841 1.198.56.56.907 1.095 1.198 1.842.22.564.48 1.413.55 2.974.078 1.69.093 2.195.093 6.472 0 4.276-.015 4.782-.093 6.471-.07 1.562-.332 2.41-.55 2.974a4.963 4.963 0 0 1-1.198 1.841c-.56.56-1.094.907-1.841 1.198-.564.22-1.413.48-2.973.55-1.688.079-2.195.094-6.47.094-4.276 0-4.781-.015-6.468-.093ZM25.608 16.2c-1.704.077-2.869.348-3.886.743a7.852 7.852 0 0 0-2.836 1.848 7.824 7.824 0 0 0-1.846 2.836c-.396 1.018-.666 2.183-.744 3.887-.079 1.708-.097 2.254-.097 6.603s.018 4.895.097 6.602c.078 1.705.348 2.87.744 3.887a7.83 7.83 0 0 0 1.846 2.837 7.87 7.87 0 0 0 2.836 1.847c1.02.396 2.182.666 3.886.744 1.708.078 2.253.097 6.6.097 4.349 0 4.894-.018 6.601-.097 1.705-.078 2.869-.348 3.886-.744a7.87 7.87 0 0 0 2.836-1.847 7.846 7.846 0 0 0 1.847-2.837c.396-1.018.667-2.182.743-3.887.078-1.709.096-2.253.096-6.602 0-4.35-.018-4.895-.096-6.603-.077-1.704-.347-2.87-.743-3.887a7.875 7.875 0 0 0-1.847-2.837 7.833 7.833 0 0 0-2.834-1.847c-1.02-.395-2.183-.667-3.887-.743-1.707-.078-2.252-.098-6.6-.098s-4.894.019-6.602.098Z" fill="#000"/></svg>