<svg width="64" height="65" fill="none" xmlns="http://www.w3.org/2000/svg"><path d="M30.434 16.984c-5.194.594-10.37 4.9-10.584 11.051-.134 3.756.907 6.573 4.395 7.365 1.514-2.737-.488-3.34-.8-5.32-1.278-8.111 9.132-13.643 14.58-7.98 3.77 3.921 1.288 15.986-4.792 14.732-5.823-1.198 2.85-10.801-1.797-12.687-3.779-1.532-5.787 4.688-3.995 7.777-1.05 5.313-3.312 10.32-2.396 16.983 2.97-2.207 3.97-6.435 4.791-10.844 1.493.928 2.29 1.895 4.194 2.045 7.023.556 10.944-7.183 9.986-14.322-.852-6.33-7.017-9.55-13.581-8.8Z" fill="#000"/></svg>