<svg width="729" height="409" fill="none" xmlns="http://www.w3.org/2000/svg"><path d="M11.395 408.805c-15.017 0-13.904-7.787-1.668-20.023 92.882-91.213 201.337-187.989 223.584-276.421 10.011-40.601-5.562-72.303-39.489-72.303-32.815 0-59.511 15.016-100.112 61.179-7.787 8.899-13.905 7.787-6.118-3.337 40.601-57.843 80.646-85.095 123.472-85.095 54.505 0 81.202 37.82 67.297 92.882-21.691 87.876-151.837 188.545-216.91 246.944-23.36 21.134-10.011 27.252 2.781 27.252h15.573c71.191 0 103.45-10.567 144.051-46.719 20.022-17.798 25.584-14.46 12.236 7.787-25.028 40.601-57.287 67.854-88.989 67.854H11.395Z" fill="#fff"/><g clip-path="url(#a)"><path d="M521.136 412.999c-15.454 0-13.855-10.125 2.664-11.724 31.441-3.197 45.296-14.92 54.355-43.164 2.664-9.592 6.927-24.512 11.723-44.229 3.731-11.191-.532-17.586-11.723-17.586H476.906c-15.454 0-12.256-10.125-2.664-22.381C493.426 249.402 690.595 20.793 702.318 8.004c7.461-7.994 26.645-6.928 20.783-.533-19.717 20.782-211.024 238.201-220.616 249.392-9.592 11.19-11.724 19.184-3.198 19.184h83.664c10.658 0 18.651-6.395 21.316-17.053l26.111-106.578c1.066-4.796 5.329-11.19 20.783-15.453 10.658-3.198 15.986-1.066 12.789 10.124-7.46 31.441-15.987 62.881-21.315 83.664l-6.928 28.243c-2.664 10.658 2.132 17.053 12.789 17.053h20.783c11.191 0 14.388 3.197 6.928 11.19-5.329 5.329-7.994 9.059-15.987 9.059h-15.987c-11.19 0-18.651 6.395-21.315 17.586l-10.125 44.762c-4.263 22.382-1.599 39.434 28.776 42.631 15.454 1.599 11.19 13.323-2.665 11.724-14.388-1.599-33.039-3.73-54.354-3.73-21.316 0-41.566 3.73-63.414 3.73Z" fill="#fff"/></g><defs><clipPath id="a"><path fill="#fff" transform="translate(461)" d="M0 0h268v409H0z"/></clipPath></defs></svg>